<?xml version="1.0" encoding="utf-8"?>
<!-- Generator: Adobe Illustrator 21.0.2, SVG Export Plug-In . SVG Version: 6.00 Build 0)  -->
<svg version="1.1" id="Layer_1" xmlns="http://www.w3.org/2000/svg" xmlns:xlink="http://www.w3.org/1999/xlink" x="0px" y="0px"
	 viewBox="0 0 16 16" style="enable-background:new 0 0 16 16;" xml:space="preserve">
<style type="text/css">
	.st0{fill:#F05423;}
</style>
<path class="st0" d="M12.4,9.7c-0.1-0.4-0.4-0.6-0.7-0.8c-0.5-0.3-1-0.6-1.4-0.8c0-0.1,0.1-0.1,0.1-0.1c0.5-0.3,0.9-0.5,1.4-0.8
	c0.5-0.3,0.7-0.8,0.6-1.3c-0.1-0.4-0.3-0.6-0.7-0.8c-1-0.6-2.1-1.2-3.1-1.8c-1-0.6-2.1-1.2-3.1-1.9C5.1,1,4.6,0.9,4.2,1.2
	C3.8,1.4,3.6,1.8,3.6,2.3c0,0.7,0,1.3,0,2c0,0.9,0.4,1.6,1.2,2.1c0.5,0.3,0.9,0.6,1.4,0.8C6.6,7.5,7.1,7.7,7.5,8
	C7.5,8,7.4,8.1,7.4,8.1c-0.9,0.5-1.7,1-2.6,1.5c-0.7,0.4-1.1,1.1-1.2,2c0,0.7,0,1.5,0,2.2c0,0.5,0.3,1,0.8,1.1
	c0.4,0.1,0.8,0,1.1-0.2C7,13.9,8.5,13,9.9,12.1c0.6-0.4,1.2-0.7,1.8-1.1C12.3,10.7,12.5,10.2,12.4,9.7z M5.5,5.2C5.2,5,5,4.7,5,4.3
	c0-0.6,0-1.2,0-1.8C7,3.7,8.9,4.9,10.9,6C10.2,6.4,9.6,6.8,9,7.2c-0.1,0-0.1,0-0.2,0C7.7,6.5,6.6,5.9,5.5,5.2z M5,13.5
	c0-0.6,0-1.2,0-1.8c0-0.4,0.2-0.7,0.6-0.9c1.1-0.6,2.1-1.3,3.2-1.9c0.1-0.1,0.2-0.1,0.3,0c0.6,0.4,1.2,0.7,1.9,1.1
	C8.9,11.2,7,12.3,5,13.5z"/>
</svg>
